<?xml version="1.0" standalone="no"?>
<!DOCTYPE svg PUBLIC "-//W3C//DTD SVG 20010904//EN"
 "http://www.w3.org/TR/2001/REC-SVG-20010904/DTD/svg10.dtd">
<svg version="1.0" xmlns="http://www.w3.org/2000/svg"
 width="500.000000pt" height="500.000000pt" viewBox="0 0 500.000000 500.000000"
 preserveAspectRatio="xMidYMid meet">

<g transform="translate(0.000000,500.000000) scale(0.100000,-0.100000)"
fill="#000000" stroke="none">
<path d="M2018 4121 c-135 -24 -315 -80 -433 -135 -188 -89 -329 -191 -485
-352 -247 -256 -398 -569 -445 -922 -16 -123 -20 -309 -6 -330 7 -11 29 -11
128 -1 l120 12 6 146 c5 136 39 351 56 351 3 0 17 -20 30 -46 42 -79 155 -169
375 -298 l79 -46 96 29 96 29 -3 54 c-5 80 15 100 107 109 114 10 138 41 176
230 14 66 32 136 41 155 9 19 49 64 89 99 40 36 78 79 85 95 19 45 7 108 -31
170 -33 54 -34 57 -32 153 3 109 0 120 -58 182 l-40 43 48 11 c139 33 423 28
578 -12 l88 -22 2 -60 c4 -132 77 -241 199 -301 82 -41 113 -67 132 -109 l13
-30 186 188 186 187 -58 51 c-198 171 -465 301 -738 359 -146 31 -439 37 -587
11z"/>
<path d="M3380 3997 c-33 -17 -55 -57 -47 -88 4 -17 72 -77 216 -189 116 -91
209 -168 208 -171 -3 -8 -416 -369 -423 -369 -3 0 -54 21 -114 46 -73 31 -117
45 -132 41 -35 -9 -110 -66 -105 -80 2 -7 64 -46 138 -87 l134 -75 6 -130 c4
-72 7 -142 8 -157 1 -19 6 -28 18 -28 25 0 101 48 115 73 6 12 14 70 16 128
l4 106 249 118 c137 65 251 116 253 114 2 -2 32 -136 67 -298 42 -196 69 -301
82 -317 26 -33 71 -32 106 4 24 25 35 65 120 470 l94 442 48 31 c61 38 113 92
146 147 81 136 24 210 -141 183 -66 -11 -97 -23 -182 -72 l-42 -23 -403 97
c-222 54 -406 97 -409 97 -3 0 -16 -6 -30 -13z m1120 -152 c54 -28 52 -92 -5
-153 l-34 -37 -1 33 c0 44 -22 84 -67 121 l-37 30 25 10 c36 15 86 13 119 -4z"/>
<path d="M2810 3079 c-41 -35 -235 -168 -334 -228 -249 -152 -631 -313 -957
-401 -385 -106 -951 -179 -1051 -137 -49 21 -65 55 -51 108 l11 40 -25 -23
c-86 -80 -82 -226 8 -303 113 -95 337 -139 709 -139 236 1 422 18 630 60 346
70 592 165 1125 438 l280 143 0 174 0 173 -139 63 c-76 35 -146 63 -155 63 -9
-1 -32 -14 -51 -31z"/>
<path d="M3715 2608 c-206 -125 -516 -281 -721 -362 -77 -31 -146 -56 -152
-56 -31 0 2 -104 45 -142 31 -28 89 -48 142 -48 64 0 88 -20 106 -90 43 -161
42 -453 -1 -501 -50 -55 -270 -176 -404 -222 -162 -56 -392 -85 -555 -72 -83
7 -85 8 -85 34 0 46 45 124 99 172 68 62 69 87 1 158 -53 55 -66 93 -57 162 4
29 25 65 80 137 160 209 199 282 144 268 -212 -53 -753 -126 -933 -126 -23 0
-24 -3 -24 -65 0 -137 85 -264 219 -326 125 -58 135 -64 150 -90 13 -24 13
-31 -3 -68 l-19 -40 42 -67 c23 -37 40 -68 38 -71 -6 -6 -158 61 -230 101
-206 115 -424 341 -534 552 l-42 81 -103 6 c-57 4 -120 10 -141 13 -24 4 -37
3 -37 -5 0 -25 84 -202 141 -297 241 -400 658 -686 1115 -764 150 -26 403 -28
547 -5 153 25 317 79 472 155 476 235 810 696 890 1225 21 143 19 468 -4 464
-3 -1 -87 -50 -186 -111z"/>
</g>
</svg>
