<svg width="673" height="515" viewBox="0 0 673 515" fill="none" xmlns="http://www.w3.org/2000/svg">
<path d="M263.457 2.56804C242.249 6.33827 213.973 15.1355 195.436 23.7756C165.902 37.7568 143.752 53.7803 119.246 79.0723C80.4436 119.288 56.7226 168.458 49.3392 223.912C46.8257 243.234 46.1973 272.454 48.3966 275.752C49.4963 277.481 52.9523 277.481 68.5045 275.91L87.3557 274.024L88.2982 251.089C89.0837 229.724 94.4248 195.949 97.0954 195.949C97.5667 195.949 99.766 199.091 101.808 203.176C108.406 215.586 126.158 229.724 160.718 249.989L173.128 257.216L188.209 252.66L203.29 248.104L202.819 239.621C202.033 227.054 205.175 223.912 219.628 222.498C237.536 220.927 241.307 216.057 247.276 186.367C249.475 175.999 252.303 165.002 253.717 162.017C255.131 159.033 261.415 151.963 267.698 146.465C273.982 140.81 279.952 134.055 281.051 131.541C284.036 124.472 282.151 114.575 276.181 104.835C270.997 96.3525 270.84 95.8812 271.154 80.8003C271.626 63.6772 271.154 61.9491 262.043 52.2094L255.759 45.4544L263.3 43.7264C285.136 38.5423 329.75 39.3278 354.099 45.6115L367.923 49.0675L368.238 58.4931C368.866 79.2293 380.334 96.3525 399.499 105.778C412.381 112.219 417.251 116.303 420.235 122.901L422.278 127.614L451.497 98.0805L480.716 68.7041L471.605 60.6924C440.5 33.8295 398.557 13.4074 355.67 4.29606C332.735 -0.573819 286.706 -1.51638 263.457 2.56804Z" fill="white"/>
<path d="M477.417 22.0477C472.233 24.7183 468.777 31.002 470.034 35.8718C470.662 38.5424 481.345 47.968 503.966 65.5624C522.189 79.8578 536.798 91.954 536.641 92.4253C536.17 93.682 471.291 150.393 470.191 150.393C469.72 150.393 461.708 147.094 452.282 143.166C440.815 138.296 433.903 136.097 431.546 136.725C426.048 138.139 414.266 147.094 415.051 149.293C415.366 150.393 425.105 156.519 436.73 162.96L457.781 174.742L458.723 195.164C459.352 206.475 459.823 217.471 459.98 219.828C460.137 222.812 460.922 224.226 462.808 224.226C466.735 224.226 478.674 216.686 480.873 212.758C481.816 210.873 483.073 201.762 483.387 192.65L484.015 175.999L523.131 157.462C544.653 147.251 562.562 139.239 562.876 139.553C563.19 139.867 567.903 160.918 573.401 186.367C579.999 217.157 584.24 233.652 586.283 236.165C590.367 241.349 597.436 241.192 602.934 235.537C606.705 231.61 608.433 225.326 621.786 161.703L636.552 92.2682L644.093 87.3983C653.675 81.4288 661.844 72.9458 667.028 64.3057C679.753 42.941 670.799 31.3162 644.878 35.5577C634.51 37.2857 629.64 39.1708 616.287 46.8683L609.689 50.4815L546.381 35.2435C511.506 26.7605 482.601 20.0055 482.13 20.0055C481.659 20.0055 479.617 20.948 477.417 22.0477ZM653.361 45.9258C661.844 50.3244 661.53 60.3783 652.576 69.961L647.235 75.7734L647.078 70.5894C647.078 63.6773 643.621 57.3936 636.552 51.5811L630.74 46.8683L634.667 45.2974C640.323 42.941 648.177 43.2552 653.361 45.9258Z" fill="white"/>
<path d="M387.874 166.259C381.433 171.757 350.957 192.65 335.405 202.076C296.289 225.954 236.28 251.246 185.067 265.07C124.587 281.722 35.6721 293.19 19.9628 286.592C12.2653 283.293 9.7518 277.952 11.9511 269.626L13.6791 263.342L9.7518 266.955C-3.75818 279.523 -3.12981 302.458 11.0085 314.554C28.76 329.478 63.9488 336.39 122.387 336.39C159.461 336.233 188.681 333.563 221.356 326.965C275.71 315.968 314.355 301.044 398.085 258.158L442.071 235.694V208.36V181.183L420.235 171.286C408.296 165.788 397.3 161.389 395.886 161.389C394.472 161.546 390.859 163.588 387.874 166.259Z" fill="white"/>
<path d="M530.043 240.25C497.682 259.886 448.983 284.393 416.779 297.117C404.683 301.987 393.844 305.914 392.901 305.914C388.031 305.914 393.216 322.252 399.97 328.222C404.84 332.62 413.952 335.762 422.278 335.762C432.332 335.762 436.102 338.904 438.93 349.9C445.685 375.192 445.527 421.063 438.772 428.604C430.918 437.244 396.357 456.252 375.307 463.478C349.858 472.276 313.727 476.831 288.12 474.789C275.082 473.689 274.767 473.532 274.767 469.448C274.767 462.222 281.837 449.968 290.32 442.428C301.002 432.688 301.159 428.761 290.477 417.607C282.151 408.967 280.109 402.998 281.522 392.158C282.151 387.603 285.45 381.947 294.09 370.637C319.225 337.804 325.351 326.336 316.711 328.536C283.408 336.862 198.42 348.329 170.144 348.329C166.531 348.329 166.373 348.801 166.373 358.54C166.373 380.062 179.726 400.013 200.777 409.753C220.413 418.864 221.984 419.807 224.341 423.891C226.383 427.661 226.383 428.761 223.869 434.573L220.885 440.857L227.483 451.382C231.096 457.195 233.766 462.065 233.452 462.536C232.51 463.478 208.631 452.953 197.321 446.67C164.96 428.604 130.713 393.101 113.433 359.954L106.835 347.23L90.6547 346.287C81.7004 345.659 71.8035 344.716 68.5046 344.245C64.7343 343.617 62.6921 343.774 62.6921 345.03C62.6921 348.958 75.8879 376.763 84.8422 391.687C122.702 454.524 188.209 499.453 260.001 511.706C283.565 515.79 323.309 516.105 345.931 512.491C369.966 508.564 395.729 500.081 420.078 488.142C494.855 451.225 547.324 378.805 559.891 295.703C563.19 273.239 562.876 222.184 559.263 222.812C558.791 222.969 545.596 230.667 530.043 240.25Z" fill="white"/>
</svg>
