<svg version="1.2" xmlns="http://www.w3.org/2000/svg" viewBox="0 0 39 39" width="39" height="39">
	<title>favicon-svg</title>
	<style>
		.s0 { fill: #ffffff } 
	</style>
	<path id="Layer" fill-rule="evenodd" class="s0" d="m0 24q0-1.6 1-2.6 1-1.1 2.7-1.1 1.7 0 2.7 1.1 1 1 1 2.6 0 1.6-1 2.7-1 1.2-2.7 1.2-1.7 0-2.7-1.2-1-1.1-1-2.7zm19.2-16q1.5 0 3 0.5 1.5 0.4 2.6 1.3 1.1-0.8 2.6-1.3 1.4-0.5 3.4-0.5 1.5 0 2.9 0.4 1.4 0.4 2.5 1.2 1 0.9 1.7 2.2 0.6 1.3 0.6 3.3v12q-0.3 0.1-1.2 0.3-0.7 0.1-1.7 0.1-0.8 0-1.5-0.1-0.6-0.2-1.1-0.5-0.4-0.3-0.7-1-0.3-0.6-0.3-1.5v-9.1q0-1.2-0.6-1.6-0.6-0.6-1.7-0.6-0.6 0-1.2 0.3-0.6 0.2-0.9 0.5 0 0.1 0 0.3c0 0.1 0 12.8 0 12.9q-0.4 0.1-1.2 0.3-0.8 0.1-1.7 0.1-0.8 0-1.5-0.1-0.6-0.2-1.1-0.5-0.4-0.3-0.7-1-0.3-0.6-0.3-1.5v-9.1q0-1.2-0.7-1.6-0.6-0.6-1.6-0.6-0.7 0-1.2 0.3-0.5 0.1-0.9 0.3v13.4q-0.4 0.1-1.2 0.3-0.8 0.1-1.7 0.1-0.8 0-1.5-0.1-0.6-0.2-1.1-0.5-0.4-0.3-0.7-1-0.3-0.6-0.3-1.5v-11.5q0-1.1 0.5-1.7 0.4-0.6 1.2-1.1 1.3-0.9 3.2-1.5 1.9-0.6 4.1-0.6zm23.1-4.6q0-1.4 1-2.4 1-1 2.6-1 1.6 0 2.6 1 0.9 1 0.9 2.4 0 1.5-0.9 2.5-1 1-2.6 1-1.6 0-2.6-1-1-1-1-2.5zm6.8 8.2v15.5q-0.3 0.1-1.2 0.3-0.8 0.1-1.7 0.1-0.8 0-1.5-0.1-0.6-0.2-1.1-0.5-0.4-0.3-0.7-1-0.2-0.6-0.2-1.5v-15.5q0.4-0.1 1.2-0.2 0.8-0.2 1.7-0.2 0.8 0 1.5 0.1 0.7 0.2 1.1 0.5 0.5 0.4 0.7 1 0.2 0.5 0.2 1.5zm10.8-6.6v22.1q-0.5 0.1-1.3 0.3-0.8 0.1-1.6 0.1-0.8 0-1.5-0.1-0.7-0.2-1.2-0.5-0.4-0.3-0.7-1-0.2-0.6-0.2-1.5v-22.1q0.4-0.1 1.2-0.2 0.9-0.2 1.7-0.2 0.9 0 1.5 0.2 0.7 0 1.1 0.4 0.5 0.3 0.7 0.9 0.3 0.6 0.3 1.6zm22.4 10.6v11.5q-0.4 0.1-1.3 0.3-0.7 0.1-1.6 0.1-0.9 0-1.6-0.1-0.6-0.2-1-0.5-0.5-0.3-0.8-1-0.2-0.6-0.2-1.5v-8.5q0-1.6-0.8-2.2-0.8-0.6-1.9-0.6-0.8 0-1.4 0.2-0.7 0.2-1.2 0.4v13.4q-0.4 0.1-1.2 0.3-0.8 0.1-1.7 0.1-0.8 0-1.5-0.1-0.6-0.2-1.1-0.5-0.4-0.3-0.8-1-0.2-0.6-0.2-1.5v-22.1q0.5-0.1 1.2-0.2 0.9-0.2 1.7-0.2 0.9 0 1.5 0.2 0.7 0 1.2 0.4 0.4 0.3 0.7 0.9 0.2 0.6 0.2 1.6v3.7q0.5-0.2 1.5-0.4 1-0.3 2.2-0.3 3.9 0 5.9 1.9 2.2 1.9 2.2 5.7zm11.6-7.6q2.1 0 3.8 0.5 1.7 0.4 2.9 1.3 1.2 0.8 1.8 2.1 0.7 1.3 0.7 3.1v8.6q0 1-0.6 1.6-0.6 0.6-1.3 1-2.5 1.6-7 1.6-2 0-3.6-0.4-1.6-0.4-2.8-1.2-1.2-0.7-1.8-1.9-0.6-1.2-0.6-2.8 0-2.6 1.5-4 1.6-1.4 4.9-1.8l5-0.5v-0.2q0-1.2-1-1.6-1-0.5-2.8-0.5-1.4 0-2.8 0.3-1.4 0.3-2.5 0.8-0.5-0.4-0.9-1.1-0.3-0.7-0.3-1.5 0-0.9 0.5-1.6 0.4-0.6 1.4-0.9 1.2-0.5 2.6-0.7 1.6-0.2 2.9-0.2zm0.3 15q0.6 0 1.4-0.1 0.9-0.2 1.2-0.4v-3l-2.7 0.2q-1.1 0.1-1.8 0.4-0.7 0.4-0.7 1.2 0 0.8 0.6 1.3 0.6 0.4 2 0.4zm28.5-1.4q0 2.9-2.2 4.6-2.1 1.7-6.4 1.7-1.6 0-3-0.3-1.4-0.2-2.4-0.7-0.9-0.5-1.5-1.3-0.5-0.6-0.5-1.6 0-1 0.4-1.6 0.3-0.7 0.9-1 1.1 0.6 2.5 1 1.4 0.5 3.3 0.5 1.2 0 1.8-0.3 0.7-0.4 0.7-0.9 0-0.6-0.5-0.9-0.4-0.3-1.5-0.5l-1.1-0.2q-3.4-0.6-5-2-1.6-1.5-1.6-4.1 0-1.3 0.6-2.5 0.6-1.1 1.7-1.9 1.1-0.7 2.7-1.2 1.5-0.4 3.4-0.4 1.4 0 2.6 0.2 1.3 0.2 2.2 0.7 0.9 0.3 1.5 1 0.5 0.7 0.5 1.6 0 0.9-0.4 1.5-0.3 0.7-0.8 1-0.3-0.1-0.9-0.3-0.6-0.3-1.3-0.4-0.7-0.2-1.5-0.3-0.8-0.1-1.4-0.1-1.2 0-1.9 0.3-0.7 0.2-0.7 0.8 0 0.5 0.4 0.7 0.4 0.3 1.5 0.6l1.1 0.2q3.7 0.8 5.2 2.4 1.6 1.4 1.6 3.7z"/>
</svg>